<svg width="3836" height="350" viewBox="0 0 3836 350" fill="none" xmlns="http://www.w3.org/2000/svg">
<path d="M3685.19 327.228L3685.19 327.225C3671.15 311.331 3664.23 286.166 3664.23 251.953V218.359V217.359H3665.23H3733.2H3734.2V218.359V261.328C3734.2 269.182 3735.36 275.247 3737.6 279.605C3739.86 283.643 3743.72 285.719 3749.41 285.719C3755.49 285.719 3759.38 283.955 3761.46 280.709L3761.47 280.699L3761.48 280.689C3763.78 277.3 3765.02 271.566 3765.02 263.281C3765.02 252.792 3763.98 244.107 3761.93 237.198L3761.93 237.193C3759.89 230.174 3756.31 223.521 3751.18 217.234L3751.17 217.225L3751.16 217.217C3746.13 210.761 3739.07 203.248 3729.98 194.673L3729.98 194.671L3699.12 165.376C3699.12 165.375 3699.12 165.374 3699.12 165.374C3675.9 143.468 3664.23 118.346 3664.23 90.0391C3664.23 60.6023 3671.04 37.998 3684.8 22.3857L3684.8 22.3821C3698.71 6.75233 3718.74 -1 3744.73 -1C3776.39 -1 3799.09 7.44063 3812.5 24.5769C3825.99 41.6286 3832.64 67.4148 3832.64 101.758V102.758H3831.64H3761.72H3760.72V101.758V78.125C3760.72 73.6407 3759.42 70.2834 3756.93 67.9116L3756.92 67.9032L3756.91 67.8946C3754.54 65.5204 3751.23 64.2812 3746.88 64.2812C3741.6 64.2812 3737.89 65.7834 3735.54 68.6075C3733.24 71.383 3732.05 75.0458 3732.05 79.6875C3732.05 84.3245 3733.31 89.388 3735.87 94.8908C3738.39 100.322 3743.43 106.665 3751.08 113.923L3751.08 113.927L3790.73 152.01C3790.73 152.01 3790.73 152.011 3790.73 152.012C3798.71 159.595 3806.03 167.637 3812.7 176.138C3819.41 184.565 3824.8 194.428 3828.87 205.715C3828.87 205.715 3828.87 205.715 3828.87 205.716L3827.93 206.055C3831.97 217.122 3833.98 230.664 3833.98 246.68C3833.98 278.971 3827.99 304.297 3816.02 322.656L3685.19 327.228ZM3685.19 327.228C3699.39 343.153 3722.38 351 3753.91 351C3783.67 351 3804.76 341.812 3816.85 323.203L3685.19 327.228Z" stroke="white" stroke-width="2"/>
<path d="M3577.52 346.875V347.875H3578.52H3644.92H3645.92V346.875V3.125V2.125H3644.92H3578.52H3577.52V3.125V346.875Z" stroke="white" stroke-width="2"/>
<path d="M3391.58 346.875V347.875H3392.58H3460.94H3461.94V346.875V189.455L3497.46 347.095L3497.64 347.875H3498.44H3569.73H3571.01L3570.7 346.633L3524.27 160.544L3562.69 3.36243L3562.99 2.125H3561.72H3492.58H3491.78L3491.6 2.89843L3461.55 132.108V3.125V2.125H3460.55H3392.58H3391.58V3.125V346.875Z" stroke="white" stroke-width="2"/>
<path d="M3188.07 346.779L3187.96 347.875H3189.06H3255.86H3256.78L3256.86 346.952L3261.08 292.406H3300.65L3305.45 346.963L3305.53 347.875H3306.45H3371.48H3372.58L3372.48 346.781L3339.86 3.03054L3339.78 2.125H3338.87H3222.27H3221.36L3221.27 3.02886L3188.07 346.779ZM3295.2 235.523H3266.12L3279.05 62.7188H3280.33L3295.2 235.523Z" stroke="white" stroke-width="2"/>
<path d="M3073.8 346.875V347.875H3074.8H3143.55H3144.55V346.875V70.1406H3184.38H3185.38V69.1406V3.125V2.125H3184.38H3033.98H3032.98V3.125V69.1406V70.1406H3033.98H3073.8V346.875Z" stroke="white" stroke-width="2"/>
<path d="M2845.09 346.875V347.875H2846.09H2913.28H2914.28V346.875V185.099L2946.68 347.071L2946.84 347.875H2947.66H3014.84H3015.84V346.875V3.125V2.125H3014.84H2948.44H2947.44V3.125V157.271L2917.78 2.93628L2917.62 2.125H2916.8H2846.09H2845.09V3.125V346.875Z" stroke="white" stroke-width="2"/>
<path d="M2669.75 325.85L2669.76 325.857C2684.58 342.66 2705.91 351 2733.59 351C2761.28 351 2782.55 342.66 2797.24 325.854C2812.04 308.941 2819.36 284.647 2819.36 253.125V89.8438C2819.36 60.2647 2812.1 37.648 2797.41 22.1644C2782.84 6.67088 2761.51 -1 2733.59 -1C2705.68 -1 2684.28 6.6718 2669.59 22.1633L2669.58 22.1666C2655.03 37.6504 2647.83 60.2662 2647.83 89.8438V253.125C2647.83 284.645 2655.09 308.938 2669.75 325.85ZM2748.8 256.445C2748.8 266.483 2747.5 273.859 2745.01 278.692C2743.77 281.094 2742.25 282.839 2740.47 283.987C2738.7 285.131 2736.62 285.719 2734.18 285.719C2728.49 285.719 2724.56 283.585 2722.16 279.393C2719.69 274.94 2718.38 267.477 2718.38 256.836V89.2578C2718.38 80.6775 2719.81 74.4166 2722.51 70.3272C2725.17 66.3102 2729.14 64.2812 2734.57 64.2812C2739.31 64.2812 2742.79 66.2234 2745.14 70.1434C2747.54 74.1448 2748.8 80.2757 2748.8 88.6719V256.445Z" stroke="white" stroke-width="2"/>
<path d="M2450.95 346.875V347.875H2451.95H2520.31H2521.31V346.875V192.016H2551.73V346.875V347.875H2552.73H2621.09H2622.09V346.875V3.125V2.125H2621.09H2552.73H2551.73V3.125V124.977H2521.31V3.125V2.125H2520.31H2451.95H2450.95V3.125V346.875Z" stroke="white" stroke-width="2"/>
<path d="M2281.32 327.456L2281.32 327.459C2296.77 343.173 2317.09 351 2342.19 351C2369.69 351 2391.25 344.188 2406.72 330.435L2406.72 330.432C2422.25 316.495 2429.91 294.223 2429.91 263.867V198.828V197.828H2428.91H2359.77H2358.77V198.828V260.742C2358.77 268.328 2357.54 274.406 2355.17 279.035L2355.16 279.045L2355.16 279.055C2354.06 281.31 2352.57 282.957 2350.71 284.05C2348.85 285.145 2346.54 285.719 2343.75 285.719C2338.84 285.719 2335.11 283.898 2332.45 280.277C2329.91 276.636 2328.54 270.204 2328.54 260.742V88.6719C2328.54 81.0698 2329.64 75.1185 2331.76 70.7494L2331.76 70.7494L2331.76 70.7395C2332.79 68.5753 2334.27 66.9812 2336.22 65.917C2338.18 64.8459 2340.68 64.2812 2343.75 64.2812C2348.98 64.2812 2352.67 66.0074 2355.05 69.3312L2355.05 69.3383L2355.06 69.3452C2356.23 70.93 2357.17 73.3659 2357.81 76.7479C2358.44 80.1163 2358.77 84.3463 2358.77 89.4531V140.234V141.234H2359.77H2428.12H2429.12V140.234V80.8594C2429.12 62.6316 2425.45 47.4635 2418.04 35.4167C2410.65 23.2698 2400.47 14.1524 2387.54 8.07998C2374.75 2.01783 2360.15 -1 2343.75 -1C2313.74 -1 2291.83 7.92092 2278.3 25.9625L2278.3 25.9663C2264.97 43.9151 2258.38 69.6808 2258.38 103.125V261.719C2258.38 289.766 2265.98 311.725 2281.32 327.456Z" stroke="white" stroke-width="2"/>
<path d="M2070.48 346.875V347.875H2071.48H2141.02H2142.02V346.875V191.044C2150.56 191.133 2156.57 192.366 2160.22 194.603L2160.24 194.612L2160.25 194.622C2162.05 195.634 2163.49 197.521 2164.48 200.466C2165.48 203.416 2165.99 207.348 2165.99 212.305V346.875V347.875H2166.99H2234.77H2235.77V346.875V216.797C2235.77 203.161 2233.54 191.986 2229.02 183.334C2225.01 175.336 2218.29 170.033 2208.95 167.395C2220.62 162.847 2228.72 155.296 2233.15 144.727C2238.04 133.356 2240.45 118.232 2240.45 99.4141C2240.45 79.9651 2238.89 63.0301 2235.74 48.6199C2232.72 34.0091 2226.64 22.6028 2217.46 14.4877C2208.23 6.19038 2194.67 2.125 2176.95 2.125H2071.48H2070.48V3.125V346.875ZM2158.01 129.469H2142.41V67.7969H2157.42C2162.88 67.7969 2166.37 69.7507 2168.25 73.4941C2169.21 75.4188 2169.97 78.5176 2170.49 82.8814C2171.01 87.2224 2171.27 92.7299 2171.27 99.4141C2171.27 109.721 2170.08 117.31 2167.79 122.288C2166.66 124.764 2165.27 126.551 2163.66 127.719C2162.06 128.879 2160.19 129.469 2158.01 129.469Z" stroke="white" stroke-width="2"/>
<path d="M1866.97 346.779L1866.87 347.875H1867.97H1934.77H1935.69L1935.76 346.952L1939.99 292.406H1979.55L1984.36 346.963L1984.44 347.875H1985.35H2050.39H2051.49L2051.39 346.781L2018.77 3.03054L2018.68 2.125H2017.77H1901.17H1900.26L1900.18 3.02886L1866.97 346.779ZM1974.11 235.523H1945.02L1957.96 62.7188H1959.24L1974.11 235.523Z" stroke="white" stroke-width="2"/>
<path d="M1611.75 327.228L1611.75 327.225C1597.71 311.331 1590.8 286.166 1590.8 251.953V218.359V217.359H1591.8H1659.77H1660.77V218.359V261.328C1660.77 269.182 1661.93 275.247 1664.16 279.605C1666.43 283.643 1670.28 285.719 1675.98 285.719C1682.05 285.719 1685.94 283.955 1688.03 280.709L1688.03 280.699L1688.04 280.689C1690.34 277.3 1691.58 271.566 1691.58 263.281C1691.58 252.792 1690.54 244.107 1688.49 237.198L1688.49 237.193C1686.45 230.174 1682.87 223.521 1677.74 217.234L1677.73 217.225L1677.73 217.217C1672.69 210.761 1665.63 203.248 1656.54 194.673L1656.54 194.671L1625.68 165.376C1625.68 165.375 1625.68 165.374 1625.68 165.374C1602.46 143.468 1590.8 118.346 1590.8 90.0391C1590.8 60.6023 1597.6 37.998 1611.36 22.3857L1611.36 22.3821C1625.27 6.75233 1645.3 -1 1671.29 -1C1702.95 -1 1725.65 7.44063 1739.07 24.5769C1752.55 41.6286 1759.2 67.4148 1759.2 101.758V102.758H1758.2H1688.28H1687.28V101.758V78.125C1687.28 73.6407 1685.98 70.2834 1683.49 67.9116L1683.48 67.9032L1683.47 67.8946C1681.1 65.5204 1677.8 64.2812 1673.44 64.2812C1668.16 64.2812 1664.45 65.7834 1662.1 68.6075C1659.81 71.383 1658.62 75.0458 1658.62 79.6875C1658.62 84.3245 1659.87 89.388 1662.43 94.8908C1664.96 100.322 1669.99 106.665 1677.64 113.923L1677.65 113.927L1717.29 152.01C1717.29 152.01 1717.29 152.011 1717.29 152.012C1725.27 159.595 1732.59 167.637 1739.26 176.138C1745.98 184.565 1751.36 194.428 1755.43 205.715C1755.43 205.715 1755.43 205.715 1755.43 205.716L1754.49 206.055C1758.53 217.122 1760.55 230.664 1760.55 246.68C1760.55 278.971 1754.56 304.297 1742.58 322.656L1611.75 327.228ZM1611.75 327.228C1625.95 343.153 1648.95 351 1680.47 351C1710.23 351 1731.32 341.812 1743.42 323.203L1611.75 327.228Z" stroke="white" stroke-width="2"/>
<path d="M1422.49 325.85L1422.49 325.857C1437.31 342.66 1458.64 351 1486.33 351C1514.01 351 1535.28 342.66 1549.97 325.854C1564.77 308.941 1572.09 284.647 1572.09 253.125V89.8438C1572.09 60.2647 1564.83 37.648 1550.14 22.1644C1535.57 6.67088 1514.24 -1 1486.33 -1C1458.41 -1 1437.02 6.6718 1422.32 22.1633L1422.32 22.1666C1407.76 37.6504 1400.56 60.2662 1400.56 89.8438V253.125C1400.56 284.645 1407.82 308.938 1422.49 325.85ZM1501.54 256.445C1501.54 266.483 1500.24 273.859 1497.74 278.692C1496.5 281.094 1494.98 282.839 1493.21 283.987C1491.43 285.131 1489.35 285.719 1486.91 285.719C1481.23 285.719 1477.29 283.585 1474.9 279.393C1472.42 274.94 1471.12 267.477 1471.12 256.836V89.2578C1471.12 80.6775 1472.54 74.4166 1475.25 70.3272C1477.91 66.3102 1481.87 64.2812 1487.3 64.2812C1492.04 64.2812 1495.52 66.2234 1497.87 70.1434C1500.27 74.1448 1501.54 80.2757 1501.54 88.6719V256.445Z" stroke="white" stroke-width="2"/>
<path d="M1309.55 346.875V347.875H1310.55H1376.95H1377.95V346.875V3.125V2.125H1376.95H1310.55H1309.55V3.125V346.875Z" stroke="white" stroke-width="2"/>
<path d="M1141.83 327.228L1141.83 327.225C1127.79 311.331 1120.88 286.166 1120.88 251.953V218.359V217.359H1121.88H1189.84H1190.84V218.359V261.328C1190.84 269.182 1192 275.247 1194.24 279.605C1196.5 283.643 1200.36 285.719 1206.05 285.719C1212.13 285.719 1216.02 283.955 1218.1 280.709L1218.11 280.699L1218.12 280.689C1220.42 277.3 1221.66 271.566 1221.66 263.281C1221.66 252.792 1220.62 244.107 1218.57 237.198L1218.57 237.193C1216.53 230.174 1212.95 223.521 1207.82 217.234L1207.81 217.225L1207.81 217.217C1202.77 210.761 1195.71 203.248 1186.62 194.673L1186.62 194.671L1155.76 165.376C1155.76 165.375 1155.76 165.374 1155.76 165.374C1132.54 143.468 1120.88 118.346 1120.88 90.0391C1120.88 60.6023 1127.68 37.998 1141.44 22.3857L1141.44 22.3821C1155.35 6.75233 1175.38 -1 1201.37 -1C1233.03 -1 1255.73 7.44063 1269.15 24.5769C1282.63 41.6286 1289.28 67.4148 1289.28 101.758V102.758H1288.28H1218.36H1217.36V101.758V78.125C1217.36 73.6407 1216.06 70.2834 1213.57 67.9116L1213.56 67.9032L1213.55 67.8946C1211.18 65.5204 1207.87 64.2812 1203.52 64.2812C1198.24 64.2812 1194.53 65.7834 1192.18 68.6075C1189.88 71.383 1188.7 75.0458 1188.7 79.6875C1188.7 84.3245 1189.95 89.388 1192.51 94.8908C1195.03 100.322 1200.07 106.665 1207.72 113.923L1207.72 113.927L1247.37 152.01C1247.37 152.01 1247.37 152.011 1247.37 152.012C1255.35 159.595 1262.67 167.637 1269.34 176.138C1276.05 184.565 1281.44 194.428 1285.51 205.715C1285.51 205.715 1285.51 205.715 1285.51 205.716L1284.57 206.055C1288.61 217.122 1290.62 230.664 1290.62 246.68C1290.62 278.971 1284.64 304.297 1272.66 322.656L1141.83 327.228ZM1141.83 327.228C1156.03 343.153 1179.02 351 1210.55 351C1240.31 351 1261.4 341.812 1273.49 323.203L1141.83 327.228Z" stroke="white" stroke-width="2"/>
<path d="M924.395 346.779L924.289 347.875H925.391H992.188H993.113L993.185 346.952L997.41 292.406H1036.97L1041.78 346.963L1041.86 347.875H1042.77H1107.81H1108.91L1108.81 346.781L1076.19 3.03054L1076.1 2.125H1075.2H958.594H957.686L957.598 3.02886L924.395 346.779ZM1031.53 235.523H1002.44L1015.38 62.7188H1016.66L1031.53 235.523Z" stroke="white" stroke-width="2"/>
<path d="M810.133 346.875V347.875H811.133H879.883H880.883V346.875V70.1406H920.703H921.703V69.1406V3.125V2.125H920.703H770.312H769.312V3.125V69.1406V70.1406H770.312H810.133V346.875Z" stroke="white" stroke-width="2"/>
<path d="M609.8 327.228L609.797 327.225C595.758 311.331 588.844 286.166 588.844 251.953V218.359V217.359H589.844H657.812H658.812V218.359V261.328C658.812 269.182 659.973 275.247 662.209 279.605C664.473 283.643 668.325 285.719 674.023 285.719C680.096 285.719 683.987 283.955 686.073 280.709L686.08 280.699L686.087 280.689C688.386 277.3 689.625 271.566 689.625 263.281C689.625 252.792 688.588 244.107 686.541 237.198L686.54 237.193C684.498 230.174 680.92 223.521 675.788 217.234L675.781 217.225L675.774 217.217C670.739 210.761 663.682 203.248 654.587 194.673L654.585 194.671L623.728 165.376C623.727 165.375 623.726 165.374 623.726 165.374C600.509 143.468 588.844 118.346 588.844 90.0391C588.844 60.6023 595.646 37.998 609.406 22.3857L609.409 22.3821C623.317 6.75233 643.347 -1 669.336 -1C701.001 -1 723.696 7.44063 737.114 24.5769C750.596 41.6286 757.25 67.4148 757.25 101.758V102.758H756.25H686.328H685.328V101.758V78.125C685.328 73.6407 684.027 70.2834 681.537 67.9116L681.528 67.9032L681.519 67.8946C679.145 65.5204 675.843 64.2812 671.484 64.2812C666.205 64.2812 662.499 65.7834 660.144 68.6075C657.852 71.383 656.664 75.0458 656.664 79.6875C656.664 84.3245 657.918 89.388 660.477 94.8908C663.003 100.322 668.042 106.665 675.688 113.923L675.693 113.927L715.338 152.01C715.338 152.01 715.339 152.011 715.34 152.012C723.315 159.595 730.638 167.637 737.308 176.138C744.023 184.565 749.411 194.428 753.479 205.715C753.48 205.715 753.48 205.715 753.48 205.716L752.539 206.055C756.576 217.122 758.594 230.664 758.594 246.68C758.594 278.971 752.604 304.297 740.625 322.656L609.8 327.228ZM609.8 327.228C624.001 343.153 646.994 351 678.516 351C708.276 351 729.366 341.812 741.462 323.203L609.8 327.228Z" stroke="white" stroke-width="2"/>
<path d="M392.364 346.779L392.258 347.875H393.359H460.156H461.082L461.153 346.952L465.379 292.406H504.944L509.746 346.963L509.826 347.875H510.742H575.781H576.881L576.777 346.781L544.16 3.03054L544.074 2.125H543.164H426.562H425.654L425.567 3.02886L392.364 346.779ZM499.496 235.523H470.414L483.35 62.7188H484.629L499.496 235.523Z" stroke="white" stroke-width="2"/>
<path d="M202.516 346.875V347.875H203.516H270.703H271.703V346.875V185.099L304.098 347.071L304.258 347.875H305.078H372.266H373.266V346.875V3.125V2.125H372.266H305.859H304.859V3.125V157.271L275.201 2.93628L275.045 2.125H274.219H203.516H202.516V3.125V346.875Z" stroke="white" stroke-width="2"/>
<path d="M-0.995367 346.779L-1.10124 347.875H0H66.7969H67.7224L67.7939 346.952L72.0193 292.406H111.584L116.387 346.963L116.467 347.875H117.383H182.422H183.521L183.417 346.781L150.8 3.03054L150.714 2.125H149.805H33.2031H32.2951L32.2078 3.02886L-0.995367 346.779ZM106.137 235.523H77.0542L89.9904 62.7188H91.2698L106.137 235.523Z" stroke="white" stroke-width="2"/>
</svg>
