<svg width="3834" height="350" viewBox="0 0 3834 350" fill="none" xmlns="http://www.w3.org/2000/svg">
<path d="M3753.91 350C3722.53 350 3699.87 342.188 3685.94 326.562C3672.14 310.938 3665.23 286.068 3665.23 251.953V218.359H3733.2V261.328C3733.2 269.271 3734.38 275.521 3736.72 280.078C3739.19 284.505 3743.42 286.719 3749.41 286.719C3755.66 286.719 3759.96 284.896 3762.3 281.25C3764.78 277.604 3766.02 271.615 3766.02 263.281C3766.02 252.734 3764.97 243.945 3762.89 236.914C3760.81 229.753 3757.16 222.982 3751.95 216.602C3746.88 210.091 3739.78 202.539 3730.66 193.945L3699.8 164.648C3676.76 142.904 3665.23 118.034 3665.23 90.0391C3665.23 60.7422 3672.01 38.4115 3685.55 23.0469C3699.22 7.68229 3718.95 0 3744.73 0C3776.24 0 3798.57 8.39844 3811.72 25.1953C3825 41.9922 3831.64 67.513 3831.64 101.758H3761.72V78.125C3761.72 73.4375 3760.35 69.7917 3757.62 67.1875C3755.01 64.5833 3751.43 63.2812 3746.88 63.2812C3741.41 63.2812 3737.37 64.8438 3734.77 67.9688C3732.29 70.9635 3731.05 74.8698 3731.05 79.6875C3731.05 84.5052 3732.36 89.7135 3734.96 95.3125C3737.57 100.911 3742.71 107.357 3750.39 114.648L3790.04 152.734C3797.98 160.286 3805.27 168.294 3811.91 176.758C3818.55 185.091 3823.89 194.857 3827.93 206.055C3831.97 217.122 3833.98 230.664 3833.98 246.68C3833.98 278.971 3827.99 304.297 3816.02 322.656C3804.17 340.885 3783.46 350 3753.91 350Z" fill="#FF9C8D"/>
<path d="M3578.52 346.875V3.125H3644.92V346.875H3578.52Z" fill="#FF9C8D"/>
<path d="M3392.58 346.875V3.125H3460.55V140.82L3492.58 3.125H3561.72L3523.24 160.547L3569.73 346.875H3498.44L3460.94 180.469V346.875H3392.58Z" fill="#FF9C8D"/>
<path d="M3189.06 346.875L3222.27 3.125H3338.87L3371.48 346.875H3306.45L3301.56 291.406H3260.16L3255.86 346.875H3189.06ZM3265.04 236.523H3296.29L3281.25 61.7188H3278.12L3265.04 236.523Z" fill="#FF9C8D"/>
<path d="M3074.8 346.875V69.1406H3033.98V3.125H3184.38V69.1406H3143.55V346.875H3074.8Z" fill="#FF9C8D"/>
<path d="M2846.09 346.875V3.125H2916.8L2948.44 167.773V3.125H3014.84V346.875H2947.66L2913.28 175V346.875H2846.09Z" fill="#FF9C8D"/>
<path d="M2733.59 350C2706.12 350 2685.09 341.732 2670.51 325.195C2656.05 308.529 2648.83 284.505 2648.83 253.125V89.8438C2648.83 60.4167 2655.99 38.0859 2670.31 22.8516C2684.77 7.61719 2705.86 0 2733.59 0C2761.33 0 2782.36 7.61719 2796.68 22.8516C2811.13 38.0859 2818.36 60.4167 2818.36 89.8438V253.125C2818.36 284.505 2811.07 308.529 2796.48 325.195C2782.03 341.732 2761.07 350 2733.59 350ZM2734.18 286.719C2744.6 286.719 2749.8 276.628 2749.8 256.445V88.6719C2749.8 71.7448 2744.73 63.2812 2734.57 63.2812C2723.11 63.2812 2717.38 71.9401 2717.38 89.2578V256.836C2717.38 267.513 2718.68 275.195 2721.29 279.883C2723.89 284.44 2728.19 286.719 2734.18 286.719Z" fill="#FF9C8D"/>
<path d="M2451.95 346.875V3.125H2520.31V125.977H2552.73V3.125H2621.09V346.875H2552.73V191.016H2520.31V346.875H2451.95Z" fill="#FF9C8D"/>
<path d="M2342.19 350C2317.32 350 2297.27 342.253 2282.03 326.758C2266.93 311.263 2259.38 289.583 2259.38 261.719V103.125C2259.38 69.7917 2265.95 44.2708 2279.1 26.5625C2292.38 8.85417 2313.93 0 2343.75 0C2360.03 0 2374.48 2.99479 2387.11 8.98438C2399.87 14.974 2409.9 23.9583 2417.19 35.9375C2424.48 47.7865 2428.12 62.7604 2428.12 80.8594V140.234H2359.77V89.4531C2359.77 79.1667 2358.46 72.2656 2355.86 68.75C2353.26 65.1042 2349.22 63.2812 2343.75 63.2812C2337.37 63.2812 2333.07 65.625 2330.86 70.3125C2328.65 74.8698 2327.54 80.9896 2327.54 88.6719V260.742C2327.54 270.247 2328.91 276.953 2331.64 280.859C2334.51 284.766 2338.54 286.719 2343.75 286.719C2349.61 286.719 2353.71 284.31 2356.05 279.492C2358.53 274.674 2359.77 268.424 2359.77 260.742V198.828H2428.91V263.867C2428.91 294.076 2421.29 316.016 2406.05 329.688C2390.82 343.229 2369.53 350 2342.19 350Z" fill="#FF9C8D"/>
<path d="M2071.48 346.875V3.125H2176.95C2194.53 3.125 2207.81 7.16146 2216.8 15.2344C2225.78 23.1771 2231.77 34.375 2234.77 48.8281C2237.89 63.151 2239.45 80.013 2239.45 99.4141C2239.45 118.164 2237.04 133.138 2232.23 144.336C2227.54 155.534 2218.62 163.281 2205.47 167.578C2216.28 169.792 2223.83 175.195 2228.12 183.789C2232.55 192.253 2234.77 203.255 2234.77 216.797V346.875H2166.99V212.305C2166.99 202.279 2164.91 196.094 2160.74 193.75C2156.71 191.276 2150.13 190.039 2141.02 190.039V346.875H2071.48ZM2141.41 130.469H2158.01C2167.51 130.469 2172.27 120.117 2172.27 99.4141C2172.27 86.0026 2171.22 77.2135 2169.14 73.0469C2167.06 68.8802 2163.15 66.7969 2157.42 66.7969H2141.41V130.469Z" fill="#FF9C8D"/>
<path d="M1867.97 346.875L1901.17 3.125H2017.77L2050.39 346.875H1985.35L1980.47 291.406H1939.06L1934.77 346.875H1867.97ZM1943.95 236.523H1975.2L1960.16 61.7188H1957.03L1943.95 236.523Z" fill="#FF9C8D"/>
<path d="M1680.47 350C1649.09 350 1626.43 342.188 1612.5 326.562C1598.7 310.938 1591.8 286.068 1591.8 251.953V218.359H1659.77V261.328C1659.77 269.271 1660.94 275.521 1663.28 280.078C1665.76 284.505 1669.99 286.719 1675.98 286.719C1682.23 286.719 1686.52 284.896 1688.87 281.25C1691.34 277.604 1692.58 271.615 1692.58 263.281C1692.58 252.734 1691.54 243.945 1689.45 236.914C1687.37 229.753 1683.72 222.982 1678.52 216.602C1673.44 210.091 1666.34 202.539 1657.23 193.945L1626.37 164.648C1603.32 142.904 1591.8 118.034 1591.8 90.0391C1591.8 60.7422 1598.57 38.4115 1612.11 23.0469C1625.78 7.68229 1645.51 0 1671.29 0C1702.8 0 1725.13 8.39844 1738.28 25.1953C1751.56 41.9922 1758.2 67.513 1758.2 101.758H1688.28V78.125C1688.28 73.4375 1686.91 69.7917 1684.18 67.1875C1681.58 64.5833 1677.99 63.2812 1673.44 63.2812C1667.97 63.2812 1663.93 64.8438 1661.33 67.9688C1658.85 70.9635 1657.62 74.8698 1657.62 79.6875C1657.62 84.5052 1658.92 89.7135 1661.52 95.3125C1664.13 100.911 1669.27 107.357 1676.95 114.648L1716.6 152.734C1724.54 160.286 1731.84 168.294 1738.48 176.758C1745.12 185.091 1750.46 194.857 1754.49 206.055C1758.53 217.122 1760.55 230.664 1760.55 246.68C1760.55 278.971 1754.56 304.297 1742.58 322.656C1730.73 340.885 1710.03 350 1680.47 350Z" fill="#FF9C8D"/>
<path d="M1486.33 350C1458.85 350 1437.83 341.732 1423.24 325.195C1408.79 308.529 1401.56 284.505 1401.56 253.125V89.8438C1401.56 60.4167 1408.72 38.0859 1423.05 22.8516C1437.5 7.61719 1458.59 0 1486.33 0C1514.06 0 1535.09 7.61719 1549.41 22.8516C1563.87 38.0859 1571.09 60.4167 1571.09 89.8438V253.125C1571.09 284.505 1563.8 308.529 1549.22 325.195C1534.77 341.732 1513.8 350 1486.33 350ZM1486.91 286.719C1497.33 286.719 1502.54 276.628 1502.54 256.445V88.6719C1502.54 71.7448 1497.46 63.2812 1487.3 63.2812C1475.85 63.2812 1470.12 71.9401 1470.12 89.2578V256.836C1470.12 267.513 1471.42 275.195 1474.02 279.883C1476.63 284.44 1480.92 286.719 1486.91 286.719Z" fill="#FF9C8D"/>
<path d="M1310.55 346.875V3.125H1376.95V346.875H1310.55Z" fill="#FF9C8D"/>
<path d="M1210.55 350C1179.17 350 1156.51 342.188 1142.58 326.562C1128.78 310.938 1121.88 286.068 1121.88 251.953V218.359H1189.84V261.328C1189.84 269.271 1191.02 275.521 1193.36 280.078C1195.83 284.505 1200.07 286.719 1206.05 286.719C1212.3 286.719 1216.6 284.896 1218.95 281.25C1221.42 277.604 1222.66 271.615 1222.66 263.281C1222.66 252.734 1221.61 243.945 1219.53 236.914C1217.45 229.753 1213.8 222.982 1208.59 216.602C1203.52 210.091 1196.42 202.539 1187.3 193.945L1156.45 164.648C1133.4 142.904 1121.88 118.034 1121.88 90.0391C1121.88 60.7422 1128.65 38.4115 1142.19 23.0469C1155.86 7.68229 1175.59 0 1201.37 0C1232.88 0 1255.21 8.39844 1268.36 25.1953C1281.64 41.9922 1288.28 67.513 1288.28 101.758H1218.36V78.125C1218.36 73.4375 1216.99 69.7917 1214.26 67.1875C1211.65 64.5833 1208.07 63.2812 1203.52 63.2812C1198.05 63.2812 1194.01 64.8438 1191.41 67.9688C1188.93 70.9635 1187.7 74.8698 1187.7 79.6875C1187.7 84.5052 1189 89.7135 1191.6 95.3125C1194.21 100.911 1199.35 107.357 1207.03 114.648L1246.68 152.734C1254.62 160.286 1261.91 168.294 1268.55 176.758C1275.2 185.091 1280.53 194.857 1284.57 206.055C1288.61 217.122 1290.62 230.664 1290.62 246.68C1290.62 278.971 1284.64 304.297 1272.66 322.656C1260.81 340.885 1240.1 350 1210.55 350Z" fill="#FF9C8D"/>
<path d="M925.391 346.875L958.594 3.125H1075.2L1107.81 346.875H1042.77L1037.89 291.406H996.484L992.188 346.875H925.391ZM1001.37 236.523H1032.62L1017.58 61.7188H1014.45L1001.37 236.523Z" fill="#FF9C8D"/>
<path d="M811.133 346.875V69.1406H770.312V3.125H920.703V69.1406H879.883V346.875H811.133Z" fill="#FF9C8D"/>
<path d="M678.516 350C647.135 350 624.479 342.188 610.547 326.562C596.745 310.938 589.844 286.068 589.844 251.953V218.359H657.812V261.328C657.812 269.271 658.984 275.521 661.328 280.078C663.802 284.505 668.034 286.719 674.023 286.719C680.273 286.719 684.57 284.896 686.914 281.25C689.388 277.604 690.625 271.615 690.625 263.281C690.625 252.734 689.583 243.945 687.5 236.914C685.417 229.753 681.771 222.982 676.562 216.602C671.484 210.091 664.388 202.539 655.273 193.945L624.414 164.648C601.367 142.904 589.844 118.034 589.844 90.0391C589.844 60.7422 596.615 38.4115 610.156 23.0469C623.828 7.68229 643.555 0 669.336 0C700.846 0 723.177 8.39844 736.328 25.1953C749.609 41.9922 756.25 67.513 756.25 101.758H686.328V78.125C686.328 73.4375 684.961 69.7917 682.227 67.1875C679.622 64.5833 676.042 63.2812 671.484 63.2812C666.016 63.2812 661.979 64.8438 659.375 67.9688C656.901 70.9635 655.664 74.8698 655.664 79.6875C655.664 84.5052 656.966 89.7135 659.57 95.3125C662.174 100.911 667.318 107.357 675 114.648L714.648 152.734C722.591 160.286 729.883 168.294 736.523 176.758C743.164 185.091 748.503 194.857 752.539 206.055C756.576 217.122 758.594 230.664 758.594 246.68C758.594 278.971 752.604 304.297 740.625 322.656C728.776 340.885 708.073 350 678.516 350Z" fill="#FF9C8D"/>
<path d="M393.359 346.875L426.562 3.125H543.164L575.781 346.875H510.742L505.859 291.406H464.453L460.156 346.875H393.359ZM469.336 236.523H500.586L485.547 61.7188H482.422L469.336 236.523Z" fill="#FF9C8D"/>
<path d="M203.516 346.875V3.125H274.219L305.859 167.773V3.125H372.266V346.875H305.078L270.703 175V346.875H203.516Z" fill="#FF9C8D"/>
<path d="M0 346.875L33.2031 3.125H149.805L182.422 346.875H117.383L112.5 291.406H71.0938L66.7969 346.875H0ZM75.9766 236.523H107.227L92.1875 61.7188H89.0625L75.9766 236.523Z" fill="#FF9C8D"/>
<path d="M0 346.875L33.2031 3.125H149.805L182.422 346.875H117.383L112.5 291.406H71.0938L66.7969 346.875H0ZM75.9766 236.523H107.227L92.1875 61.7188H89.0625L75.9766 236.523Z" fill="#FF9C8D"/>
</svg>
